# xmcd
#
# Track frame offsets:
#	150
#	14155
#	36558
#	57058
#	65319
#	77955
#	95948
#	113061
#	131521
#	154549
#	164517
#
# Disc length: 2424 seconds
#
# Revision: 1
# Processed by: cddbd v1.4PL0 Copyright (c) Steve Scherf et al.
# Submitted via: EasyCDDAExtractor 6.2.0.3
#
DISCID=9609760b
DTITLE=Λουδοβίκος των Ανωγείων - Πύλη της άμμου
DYEAR=1997
DGENRE=Country
TTITLE0=Ιούλιος κι ο άνεμος
TTITLE1=Κουρασμένη νεράϊδα
TTITLE2=Μάνα
TTITLE3=Ανοιχτό παράθυρο
TTITLE4=Το γράμμα του ναύτη
TTITLE5=Το άρωμα
TTITLE6=Πύλη της άμμου
TTITLE7=Σαλώμη
TTITLE8=Δώδεκα τα όχι
TTITLE9=Το ξέρω πως υπάρχεις
TTITLE10=Το νελό
EXTD=
EXTT0=
EXTT1=
EXTT2=
EXTT3=
EXTT4=
EXTT5=
EXTT6=
EXTT7=
EXTT8=
EXTT9=
EXTT10=
PLAYORDER=
